<svg width="1417" height="1118" viewBox="0 0 1417 1118" fill="none" xmlns="http://www.w3.org/2000/svg">
<path d="M893.194 22.0194C640.942 163.797 231.319 -162.866 209.88 143.201C188.441 449.267 55.7009 378.379 5.52428 595.356C-44.6523 812.333 261.881 712.226 323.005 890.406C384.129 1068.59 481.746 1148.57 795.121 1107.38C1108.5 1066.19 1016.81 890.406 1230.29 890.406C1443.77 890.406 1472.05 572.844 1326.08 520.156C1180.11 467.469 1145.45 -119.758 893.194 22.0194Z" fill="#42FFE0"/>
<path d="M986.188 155.662C951.021 146.87 924.535 155.662 900.028 177.092C895.851 180.719 895.082 187.533 899.149 191.819L914.425 211.051C917.941 215.667 924.755 216.436 929.371 212.919C943.768 202.039 954.098 196.215 971.242 200.5C984.87 203.907 999.486 216.436 996.19 229.624C993.662 239.734 984.101 242.482 969.045 246.658C951.021 251.494 927.613 257.319 920.799 284.574L919.81 288.53C918.272 294.684 922.008 300.289 927.723 301.718L959.814 309.74C965.528 311.169 971.463 307.982 973.001 301.827L973.551 299.629C978.276 280.727 1033.45 293.584 1046.19 242.591C1055.75 204.346 1023.11 164.893 986.188 155.662ZM940.691 318.972C923.547 314.686 906.513 324.907 902.337 341.611C898.161 358.316 908.381 375.35 925.526 379.636C942.23 383.812 959.264 373.591 963.441 356.887C967.617 340.182 957.396 323.148 940.691 318.972Z" fill="#27B39C"/>
<path d="M707.953 815.709C675.246 800.078 647.539 803.409 619.249 819.52C614.433 822.24 612.32 828.764 615.45 833.775L626.582 855.668C629.107 860.892 635.63 863.006 640.855 860.48C657.133 852.691 668.418 849.044 684.362 856.665C697.036 862.722 708.86 877.914 702.998 890.179C698.504 899.582 688.587 900.367 673 901.456C654.374 902.599 630.275 903.636 618.161 928.984L616.402 932.664C613.667 938.387 616.21 944.625 621.525 947.165L651.37 961.428C656.685 963.968 663.136 962.029 665.871 956.305L666.848 954.261C675.25 936.681 726.745 960.287 749.41 912.862C766.408 877.294 742.295 832.121 707.953 815.709ZM630.79 966.659C614.846 959.039 596.115 965.656 588.69 981.192C581.265 996.728 587.882 1015.46 603.827 1023.08C619.362 1030.5 638.093 1023.89 645.518 1008.35C652.943 992.815 646.326 974.084 630.79 966.659Z" fill="#27B39C"/>
<path d="M205.344 500.147C179.102 525.155 172.361 552.236 177.356 584.406C178.186 589.875 183.531 594.17 189.327 593.027L213.748 590.41C219.53 589.908 223.825 584.563 223.323 578.782C221.833 560.798 222.438 548.954 235.231 536.762C245.4 527.071 263.804 521.425 273.182 531.266C280.372 538.81 277.579 548.358 273.052 563.313C267.495 581.127 259.893 604.02 279.275 624.357L282.089 627.31C286.465 631.902 293.199 631.744 297.464 627.68L321.409 604.859C325.674 600.796 326.156 594.077 321.779 589.484L320.216 587.844C306.774 573.739 347.152 534.007 310.89 495.957C283.693 467.418 232.898 473.888 205.344 500.147ZM318.979 625.954C306.186 638.146 305.708 658.005 317.587 670.47C329.466 682.935 349.325 683.413 362.118 671.221C374.583 659.342 375.061 639.483 363.182 627.018C351.303 614.553 331.444 614.075 318.979 625.954Z" fill="#1D9D88"/>
<path d="M1164.28 559.69C1128.63 566.279 1108.18 585.266 1094.77 614.932C1092.48 619.964 1094.6 626.483 1100.08 628.696L1121.96 639.859C1127.07 642.6 1133.59 640.473 1136.33 635.358C1144.92 619.486 1151.9 609.901 1169.28 606.689C1183.09 604.136 1201.59 609.472 1204.06 622.839C1205.95 633.088 1198.39 639.554 1186.43 649.599C1172.03 661.476 1153.15 676.487 1158.26 704.112L1159 708.123C1160.15 714.361 1165.88 717.91 1171.67 716.84L1204.2 710.827C1209.99 709.756 1214.07 704.395 1212.91 698.157L1212.5 695.929C1208.96 676.769 1264.49 665.582 1254.94 613.896C1247.77 575.13 1201.71 552.772 1164.28 559.69ZM1190.63 727.16C1173.25 730.372 1161.99 746.738 1165.12 763.67C1168.25 780.602 1184.61 791.861 1201.99 788.649C1218.92 785.519 1230.18 769.153 1227.05 752.221C1223.92 735.289 1207.56 724.03 1190.63 727.16Z" fill="#1D9D88"/>
<path d="M715 420.5C715 491.469 657.469 549 586.5 549C515.531 549 458 491.469 458 420.5C458 349.531 515.531 292 586.5 292C657.469 292 715 349.531 715 420.5ZM496.178 420.5C496.178 470.383 536.617 510.822 586.5 510.822C636.383 510.822 676.822 470.383 676.822 420.5C676.822 370.617 636.383 330.178 586.5 330.178C536.617 330.178 496.178 370.617 496.178 420.5Z" fill="#176D5F"/>
<path d="M857 745L654 516L677 495L902 694C897.82 728.954 886.748 738.752 857 745Z" fill="#176D5F"/>
</svg>
